<svg version="1.2" xmlns="http://www.w3.org/2000/svg" viewBox="0 0 1000 1000" width="320" height="320"><style>.a{fill:#fff}.b{fill:#fdeeeb}.c{fill:#0088de}.d{fill:none;stroke:#0088de;stroke-width:2}.e{fill:#ff8b2e}.f{fill:#fdfefd}.g{fill:none;stroke:#212b3b;stroke-width:4}.h{fill:none;stroke:#212b3b;stroke-width:2}.i{fill:#212b3b}.j{fill:#0a4494}.k{fill:#ffd6d0}.l{fill:none;stroke:#cc8f8d;stroke-linecap:round;stroke-width:2}.m{fill:none;stroke:#ffd6d0;stroke-linecap:round;stroke-width:4}.n{fill:#f7746f}.o{fill:#6b2e40}.p{fill:#fac8bf}.q{fill:#eda19f}.r{fill:#ff9185}.s{fill:#f25c61}.t{fill:#bf4753}.u{fill:#0387d9}.v{fill:#904b57}.w{fill:#bd7d81}.x{fill:#75c0e0}.y{fill:none;stroke:#904b57;stroke-linecap:round;stroke-width:4}.z{fill:none;stroke:#b35267;stroke-linecap:round;stroke-width:4}.A{fill:#363857}.B{fill:#b35267}.C{fill:#ffedef}.D{fill:#e6919d}.E{fill:none;stroke:#363857;stroke-width:2}.F{fill:#1b2e34}.G{fill:#12252b}.H{fill:#597375}.I{fill:#324b4f}.J{fill:none;stroke:#b35267;stroke-linecap:round;stroke-width:2}.K{fill:none;stroke:#eb6e6a;stroke-linecap:round;stroke-width:2}</style><path class="a" d="m1000 1000h-1000v-1000h1000z" style="fill: rgb(247, 244, 242);"></path><path class="b" d="m176.8 830.4c-82.5-26.9-136.2-111.1-131.6-195.3 4.5-84.3 67.1-162.2 148.3-185 46-12.9 96-9.4 140.6-26.8 88.4-34.4 128.9-138 207.7-190.9 86.7-58.1 211.1-41.4 290.1 26.8 79 68.2 114.2 178.5 105.8 282.5-8.3 104-56 201.8-119.5 284.7-231.8-5-436.6-0.5-641.4 4z" style="fill: rgb(246, 208, 201);"></path><path class="b" d="m453.1 245.9c-20.9 81.7-103.2 143.4-187.5 140.3-44.6-1.6-90.7-21.9-112.9-60.6-22.3-38.7-12.2-95.9 27.2-116.8 33.9-18 76.2-6.1 112.8-17.4 34.6-10.7 62.1-41.5 98.1-44.4 20.3-1.6 41.1 6.7 54.7 21.8 13.6 15 18 36.1 7.6 77.1z" style="fill: rgb(246, 208, 201);"></path><path fill-rule="evenodd" class="c" d="m269.9 475.5c-2.4 5.3-5.7 10.1-9.6 14.2l10.3 15.6-19.1 12.6-10.3-15.6c-5.3 2-11 3.2-16.8 3.3l-3.7 18.3-22.5-4.6 3.7-18.3c-5.3-2.4-10-5.6-14.1-9.5l-15.6 10.3-12.7-19.1 15.6-10.4c-2-5.2-3.1-10.9-3.2-16.7l-18.4-3.7 4.6-22.5 18.3 3.7c2.4-5.3 5.7-10.1 9.6-14.1l-10.3-15.6 19.1-12.7 10.3 15.6c5.3-2 10.9-3.1 16.8-3.3l3.7-18.3 22.5 4.6-3.7 18.3c5.3 2.4 10 5.6 14.1 9.5l15.6-10.3 12.7 19.2-15.6 10.3c2 5.3 3.1 10.9 3.3 16.7l18.3 3.7-4.6 22.6zm-18.3-15.5c3.1-15.7-7-31-22.7-34.2-15.7-3.2-31 7-34.2 22.7-3.2 15.7 7 31 22.7 34.1 15.7 3.2 31-6.9 34.2-22.6z" style="fill: rgb(0, 136, 222);"></path><path fill-rule="evenodd" class="d" d="m351.3 550.9c-2.2 3.6-4.9 6.8-8.1 9.4l6.1 12.1-14.8 7.5-6.1-12.1c-4 1-8.2 1.3-12.4 0.9l-4.2 12.9-15.8-5.3 4.2-12.8c-3.6-2.2-6.7-4.9-9.3-8.1l-12.1 6.1-7.5-14.9 12.1-6.1c-1-3.9-1.3-8.1-0.9-12.3l-12.9-4.2 5.2-15.8 12.9 4.2c2.2-3.6 4.9-6.7 8-9.4l-6.1-12 14.9-7.5 6.1 12.1c4-1 8.1-1.4 12.3-1l4.3-12.8 15.8 5.2-4.3 12.9c3.6 2.1 6.8 4.9 9.4 8l12.1-6.1 7.5 14.9-12.1 6.1c1 4 1.3 8.1 0.9 12.3l12.9 4.3-5.2 15.8zm-11.9-12.7c3.6-11-2.4-22.9-13.4-26.6-11-3.6-22.9 2.4-26.5 13.4-3.7 11.1 2.3 22.9 13.3 26.6 11.1 3.6 23-2.4 26.6-13.4z" style="stroke: rgb(0, 136, 222);"></path><path fill-rule="evenodd" class="d" d="m383.7 451.8c-1.1 2.4-2.6 4.7-4.4 6.6l4.9 7.2-8.8 6-4.9-7.2c-2.5 1-5.1 1.5-7.8 1.6l-1.7 8.6-10.5-2 1.6-8.6c-2.4-1.1-4.7-2.6-6.6-4.4l-7.2 4.9-6-8.9 7.2-4.8c-1-2.5-1.5-5.1-1.6-7.8l-8.6-1.7 2-10.5 8.6 1.6c1.1-2.5 2.6-4.7 4.4-6.6l-4.9-7.2 8.9-6.1 4.8 7.3c2.5-1 5.1-1.5 7.8-1.6l1.7-8.6 10.5 2-1.6 8.6c2.5 1.1 4.7 2.6 6.6 4.4l7.2-4.9 6.1 8.8-7.3 4.9c1 2.5 1.5 5.1 1.6 7.8l8.6 1.7-2 10.5zm-8.6-7.1c1.4-7.4-3.4-14.5-10.8-15.9-7.3-1.4-14.4 3.4-15.8 10.8-1.4 7.3 3.4 14.4 10.7 15.8 7.4 1.4 14.4-3.4 15.9-10.7z" style="stroke: rgb(0, 136, 222);"></path><path fill-rule="evenodd" class="c" d="m935.7 498c-0.9 6-2.8 11.7-5.5 17l14.8 12.6-15.5 18.2-14.8-12.6c-4.8 3.5-10.1 6.3-15.9 8.1l1.6 19.4-23.9 2-1.6-19.5c-6-0.8-11.7-2.7-16.9-5.4l-12.6 14.8-18.3-15.5 12.7-14.9c-3.6-4.7-6.3-10-8.1-15.8l-19.5 1.6-1.9-23.9 19.4-1.6c0.9-6 2.8-11.7 5.5-16.9l-14.8-12.6 15.5-18.3 14.8 12.6c4.8-3.5 10.1-6.2 15.9-8.1l-1.6-19.4 23.9-1.9 1.6 19.4c6 0.9 11.7 2.8 16.9 5.5l12.6-14.9 18.3 15.6-12.7 14.8c3.6 4.7 6.3 10.1 8.1 15.8l19.5-1.5 1.9 23.9zm-22.8-10.2c-1.4-16.7-16-29.1-32.6-27.7-16.7 1.3-29.1 15.9-27.7 32.5 1.3 16.7 15.9 29.1 32.5 27.8 16.7-1.4 29.1-15.9 27.8-32.6z" style="fill: rgb(0, 136, 222);"></path><path fill-rule="evenodd" class="d" d="m720.4 265.7c-1.1 2.5-2.6 4.7-4.4 6.6l4.9 7.3-8.9 6-4.9-7.2c-2.4 0.9-5.1 1.5-7.8 1.6l-1.6 8.5-10.5-2 1.6-8.6c-2.5-1-4.7-2.5-6.6-4.3l-7.3 4.9-6-8.9 7.2-4.9c-0.9-2.5-1.5-5.1-1.6-7.8l-8.5-1.7 2-10.5 8.6 1.7c1-2.5 2.5-4.8 4.3-6.7l-4.9-7.2 8.9-6 4.9 7.2c2.5-1 5.1-1.5 7.8-1.6l1.6-8.6 10.6 2-1.7 8.6c2.5 1.1 4.7 2.6 6.7 4.4l7.2-4.9 6 8.9-7.2 4.9c0.9 2.4 1.5 5.1 1.6 7.8l8.6 1.6-2.1 10.5zm-8.6-7.1c1.4-7.3-3.4-14.4-10.7-15.8-7.4-1.4-14.5 3.4-15.9 10.7-1.4 7.4 3.4 14.5 10.8 15.9 7.3 1.4 14.4-3.4 15.8-10.8z" style="stroke: rgb(0, 136, 222);"></path><path class="e" d="m336.8 178.9c40.4 0 73.2 32.8 73.2 73.2 0 40.4-32.8 73.2-73.2 73.2-40.4 0-73.2-32.8-73.2-73.2 0-40.4 32.8-73.2 73.2-73.2z" style="fill: rgb(255, 139, 46);"></path><path class="f" d="m336.8 189.4c34.6 0 62.7 28.1 62.7 62.7 0 34.7-28.1 62.8-62.7 62.8-34.7 0-62.8-28.1-62.8-62.8 0-34.6 28.1-62.7 62.8-62.7z" style="fill: rgb(255, 255, 255);"></path><path class="g" d="m336.8 192.5l-0.1 8.3" style="stroke: rgb(33, 43, 59);"></path><path class="g" d="m336.8 303.4v8.3" style="stroke: rgb(33, 43, 59);"></path><path class="g" d="m277.2 252.1l8.3 0.1" style="stroke: rgb(33, 43, 59);"></path><path class="g" d="m388 252.1h8.4" style="stroke: rgb(33, 43, 59);"></path><path class="h" d="m294.7 210l5.8 5.9" style="stroke: rgb(33, 43, 59);"></path><path class="h" d="m373.1 288.3l5.8 6" style="stroke: rgb(33, 43, 59);"></path><path class="h" d="m294.6 294.2l6-5.8" style="stroke: rgb(33, 43, 59);"></path><path class="h" d="m373 215.8l5.9-5.8" style="stroke: rgb(33, 43, 59);"></path><path class="i" d="m336.8 247.1c2.8 0 5 2.2 5 5 0 2.8-2.2 5-5 5-2.8 0-5-2.2-5-5 0-2.8 2.2-5 5-5z" style="fill: rgb(33, 43, 59);"></path><path class="a" d="m702.9 356.1v-34.5c0-15.1 12.2-27.3 27.3-27.3h138.2c15.1 0 27.3 12.2 27.3 27.3v34.5c0 15.1-12.2 27.3-27.3 27.3h-138.2c-15.1-0.1-27.3-12.3-27.3-27.3z" style="fill: rgb(247, 244, 242);"></path><path class="a" d="m836.3 370.1l-55.6 58.1 6.2-59.1z" style="fill: rgb(247, 244, 242);"></path><path class="j" d="m744.3 333c5.6 0 10.2 4.3 10.2 9.7 0 5.3-4.6 9.6-10.2 9.6-5.7 0-10.3-4.3-10.3-9.6 0-5.4 4.6-9.7 10.3-9.7z" style="fill: rgb(10, 68, 148);"></path><path class="j" d="m800.1 333c5.6 0 10.2 4.3 10.2 9.7 0 5.3-4.6 9.6-10.2 9.6-5.7 0-10.3-4.3-10.3-9.6 0-5.4 4.6-9.7 10.3-9.7z" style="fill: rgb(10, 68, 148);"></path><path class="j" d="m854.3 333c5.7 0 10.3 4.3 10.3 9.7 0 5.3-4.6 9.6-10.3 9.6-5.6 0-10.2-4.3-10.2-9.6 0-5.4 4.6-9.7 10.2-9.7z" style="fill: rgb(10, 68, 148);"></path><path class="b" d="m545.8 162.6c44.7 0 80.9 36.5 80.9 81.6 0 45.1-36.2 81.7-80.9 81.7-44.7 0-81-36.6-81-81.7 0-45.1 36.3-81.6 81-81.6z" style="fill: rgb(246, 208, 201);"></path><path class="a" d="m551.2 169c44.7 0 80.9 36.6 80.9 81.7 0 45.1-36.2 81.7-80.9 81.7-44.8 0-81-36.6-81-81.7 0-45.1 36.2-81.7 81-81.7z" style="fill: rgb(247, 244, 242);"></path><path fill-rule="evenodd" class="c" d="m529 292.6c-5.6 5.6-14.7 5.5-20.2-0.2-5.6-5.7-5.5-14.8 0.1-20.4 5.6-5.6 14.7-5.5 20.2 0.2 5.6 5.7 5.6 14.9-0.1 20.4zm-3-3l2.7-9.8-7.1-7.3-9.7 2.6-2.7 9.7 7.1 7.3z" style="fill: rgb(0, 136, 222);"></path><path class="c" d="m593.1 229.8c-5.9 5.8-15.2 5.9-20.8 0.2-5.6-5.7-5.3-15 0.6-20.9 4-4 9.7-5.3 14.6-3.9l-11.2 11.1c-1.8 1.7-1.8 4.5-0.1 6.3l3.5 3.6c1.7 1.7 4.5 1.8 6.3 0.1l11.2-11.2c1.3 5-0.1 10.6-4.1 14.7z" style="fill: rgb(0, 136, 222);"></path><path class="c" d="m530.5 280.9l-9.3-9.5q22.8-25.4 48.4-48l9.3 9.5q-23 25.2-48.4 48z" style="fill: rgb(0, 136, 222);"></path><path class="a" d="m592.5 294.9l0.3 55-29.5-32.8z" style="fill: rgb(247, 244, 242);"></path><path class="k" d="m718.5 820.1c8.7-46.2 20.7-92.2 40.5-135.9 19.9-43.6 47.9-85 85.5-118.3 14.3-12.5 33.7-24.7 52.3-19.4 18.6 5.3 25.7 25.7 24.1 43.3-2.8 30.8-23.5 58.3-45.1 82.9-45.9 52.2-99.1 98.8-157.3 147.4z" style="fill: rgb(253, 173, 160);"></path><path class="l" d="m900 563.8c-67.7 77.2-127.5 161.2-178 250.1" style="stroke: rgb(204, 143, 141);"></path><path class="l" d="m916.9 590.3c-12.1-3.4-25-4.2-37.5-2.2-1.3-11.6-4.1-23.1-8.4-34" style="stroke: rgb(204, 143, 141);"></path><path class="l" d="m891.6 646.9c-18.5-6.2-38.6-7.3-57.7-3.3-2-15.1-8.3-29.6-18-41.4" style="stroke: rgb(204, 143, 141);"></path><path class="l" d="m839.5 706.7c-18.1-1.3-36.5-0.2-54.3 3.4-0.9-13.3-5.4-26.3-12.9-37.4" style="stroke: rgb(204, 143, 141);"></path><path class="l" d="m783.2 750.5c-10.1 1.8-19.9 4.7-29.4 8.5-1.4-7.3-4.3-14.3-8.5-20.4" style="stroke: rgb(204, 143, 141);"></path><path class="k" d="m705 830.4c42.9-40.5 86.9-81.8 142.9-109.6 14.3-7.1 30-13.4 46.4-13.9 16.5-0.4 33.8 6.5 38.9 19.1 5 12.3-3 26.5-15.2 35.5-12.2 9-27.9 13.8-43.2 18.4-55.5 16.9-111.1 33.7-169.8 50.5z" style="fill: rgb(253, 173, 160);"></path><path class="l" d="m921.3 729.8c-76.2 18.2-147.8 51.1-208.2 95.5" style="stroke: rgb(204, 143, 141);"></path><path class="l" d="m906.8 757.5c-2.7-8.2-9.1-15.4-17.4-19.7 2.7-7.5 4.1-15.4 3.9-23.2" style="stroke: rgb(204, 143, 141);"></path><path class="l" d="m860.4 775.6c-3.9-8.3-10.3-15.7-18.4-21.2 3.3-8.6 5.4-17.6 6.3-26.7" style="stroke: rgb(204, 143, 141);"></path><path class="l" d="m818 789.1c-5.1-6.7-13.2-11.6-22.2-13.3 1.4-7 1.5-14.2 0.2-21.2" style="stroke: rgb(204, 143, 141);"></path><path class="l" d="m774.5 807.8c-5.5-5-13-8-20.8-8.4 1.8-4 2.3-9.6 1.7-12" style="stroke: rgb(204, 143, 141);"></path><path class="k" d="m729.2 508.4c8-24 19.2-48 37-60.8 17.9-12.8 43.7-10.1 54.5 11.7 10.3 20.9 3.5 48.4-3.8 71.7-31.6 101.5-66.6 201.4-104.8 299.4-6-94.1-18.5-215 17.1-322z" style="fill: rgb(253, 173, 160);"></path><path class="l" d="m795.8 455.1c-46.2 86.9-67.7 214.6-81 373" style="stroke: rgb(204, 143, 141);"></path><path class="l" d="m804.8 541.2c-17 1.8-33.6 7.8-48.6 17.5-5.8-13.4-13.5-25.2-23-34.6" style="stroke: rgb(204, 143, 141);"></path><path class="l" d="m782.7 609.6c-15.5 5.1-30.2 14-43 26-7.9-11.9-17.2-22.4-27.4-31.1" style="stroke: rgb(204, 143, 141);"></path><path class="l" d="m756.2 684c-10.5 4.5-20.3 10.9-29.2 18.9-4.2-6.7-9.4-12.5-15.3-16.9" style="stroke: rgb(204, 143, 141);"></path><path class="l" d="m817.4 493.7c-13.9-3.9-29-1.4-41.5 6.9-1.5-13.8-7.9-26.7-17.1-35" style="stroke: rgb(204, 143, 141);"></path><path class="m" d="m457.8 476.6c41.7 86.3 69.9 179 83.4 273.9" style="stroke: rgb(255, 214, 208);"></path><path class="k" d="m458.8 480.2c-18.5-4.2-34-17.8-39.8-35.1-1.8-5.2-2.2-12 2.6-15.3 4.7-3.3 11.3-0.8 15.9 2.4 16 11.1 25.7 29.9 21.3 48z" style="fill: rgb(253, 173, 160);"></path><path class="k" d="m466.7 494c-4.2-17-4-35.1 0.7-52 0.6-2.3 1.4-4.8 2.9-6.8 1.4-2 3.7-3.5 6.2-3.5 2.5 0 4.7 1.5 6.2 3.5 1.4 2.1 2 4.5 2.5 7 1.5 9.2-0.1 18.7-3.4 27.5-3.4 8.7-8.3 16.8-15.1 24.3z" style="fill: rgb(253, 173, 160);"></path><path class="k" d="m479.7 520.5c-1.1-16.2 2-32.6 8.9-47.3 2.8-6 6.4-12 11.8-16.1 2.8-2.1 6.6-3.7 9.8-2.2 2.5 1.2 3.9 4.1 4 6.8 0.1 2.8-0.8 5.5-1.8 8.1-7.2 19.5-19.5 37-32.7 50.7z" style="fill: rgb(253, 173, 160);"></path><path class="k" d="m490 545.2c-1.5-19.4 9.3-39.2 26.4-48.3 3.7-2 8.4-3.4 12-1.1 2.8 1.8 3.8 5.5 3.3 8.8-0.5 3.3-2.3 6.3-4.2 9-9.4 13.9-22 25.6-37.5 31.6z" style="fill: rgb(253, 173, 160);"></path><path class="k" d="m499.3 575.8c1.3-20.8 14.3-40.5 32.9-49.9 3-1.5 6.7-2.7 9.5-0.9 2.7 1.7 3.1 5.5 2.7 8.7-1.1 7.3-5.6 13.6-10.4 19.2-9.3 10.7-20.4 19.7-34.7 22.9z" style="fill: rgb(253, 173, 160);"></path><path class="k" d="m509.3 601.1c5-19.9 20-37.1 39-44.9 3.1-1.3 6.7-2.3 9.8-0.9 3.1 1.4 4.7 5 4.7 8.4-0.1 3.4-1.6 6.6-3.4 9.4-5.5 8.7-13.8 15.3-22.8 20.3-9.1 4.9-18.8 8.2-27.3 7.7z" style="fill: rgb(253, 173, 160);"></path><path class="k" d="m429.5 498.4c-5.7-1.6-11.8-4.2-14.5-9.4-2.1-4.1-1.2-9.9 2.8-12.1 2.2-1.1 4.7-1 7.1-0.8 17.4 1.8 33.8 11.8 43.3 26.5-16.7 0.6-27.9-1-38.7-4.2z" style="fill: rgb(253, 173, 160);"></path><path class="k" d="m437.7 529.9c-4.6-0.5-9.9-1.5-12.2-5.6-2-3.7-0.5-8.5 2.5-11.4 3.1-2.8 7.3-4 11.5-4.5 17-2.1 34.9 6.8 43.5 21.6-17.7 1.7-31.5 1.3-45.3-0.1z" style="fill: rgb(253, 173, 160);"></path><path class="k" d="m446.1 560c-2.6-0.2-5.2-0.3-7.6-1.2-2.5-1-4.7-2.9-5.3-5.4-0.6-3 1-6.1 3.4-7.9 2.5-1.8 5.5-2.5 8.5-2.9 18-2.5 37.1 4.7 49 18.4-16.9 0.5-32.5-0.3-48-1z" style="fill: rgb(253, 173, 160);"></path><path class="k" d="m457.5 588.1c-2.9-0.3-6-0.7-8.6-2.2-2.6-1.4-4.7-4.4-4.2-7.3 0.5-3 3.4-5.1 6.1-6.3 9.7-4.5 21.2-3.7 31 0.6 9.7 4.3 17.7 11.9 23.8 20.5-23.9-2.6-36-4-48.1-5.3z" style="fill: rgb(253, 173, 160);"></path><path class="k" d="m465 618.2c-4.4-0.4-9.4-1.2-11.7-5-2.3-3.8-0.3-9 3.2-11.6 3.6-2.6 8.3-3.2 12.7-3.1 16.7 0.2 33.2 8 43.9 20.8-25.7 0.9-36.9-0.1-48.1-1.1z" style="fill: rgb(253, 173, 160);"></path><path class="k" d="m470.5 647.2c-3 0.2-6.3 0.4-8.6-1.6-3-2.6-2.2-8 0.7-10.8 2.9-2.9 7.2-3.8 11.2-4.4 15.6-2.3 32.9-0.5 44.5 10.1-19.8 4.4-33.8 5.6-47.8 6.7z" style="fill: rgb(253, 173, 160);"></path><path class="k" d="m479.6 676.7c-4.7 0.4-10.5-0.1-12.5-4.4-1.4-3-0.1-6.7 2.2-9 2.4-2.3 5.6-3.5 8.8-4.5 8.1-2.6 16.7-4.3 25.2-3.6 8.5 0.8 17 4.4 22.4 10.9-19.5 6-32.7 9.5-46.1 10.6z" style="fill: rgb(253, 173, 160);"></path><path class="k" d="m484.6 704.1c-2.8-0.1-5.7-0.2-8.2-1.4-2.5-1.2-4.6-3.5-4.8-6.3-0.3-4.4 4.2-7.6 8.4-9.2 16.7-6.5 36.1-2.4 51.8 6.2-19.3 6.9-33.1 10.7-47.2 10.7z" style="fill: rgb(253, 173, 160);"></path><path class="k" d="m492.1 734.8c-4.2 0.1-9-0.3-11.5-3.7-2.4-3.2-1.6-8.1 1.1-11.2 2.6-3.1 6.6-4.7 10.5-5.9 14-4 29.4-2.6 42.4 3.8-18.3 14.3-30.3 16.6-42.5 17z" style="fill: rgb(253, 173, 160);"></path><path class="k" d="m518 629c3.5-15.8 15.4-29.5 30.6-35.2 4-1.5 8.3-2.5 12.4-1.6 4.1 0.9 8 4 8.6 8.1 0.6 3.3-0.9 6.6-3.2 9.1-2.2 2.4-5.1 4.1-8 5.6-11.2 6-22.9 10.8-40.4 14z" style="fill: rgb(253, 173, 160);"></path><path class="k" d="m523.8 659.2c5.7-19.2 21.8-34.9 41.2-40.1 2.4-0.7 5.2-1.1 7.2 0.3 2.9 2.1 2.5 6.5 1.1 9.8-3.5 8.1-11.1 13.7-18.9 17.8-7.7 4.2-16.1 7.4-30.6 12.2z" style="fill: rgb(253, 173, 160);"></path><path class="k" d="m528.9 681.3c3.2-7.7 9.2-14.2 16.4-18.6 7.2-4.5 15.4-7 23.8-8.1 3-0.5 6.2-0.7 9.2 0.3 2.9 0.9 5.5 3.4 5.9 6.4 0.3 2.5-1 5-2.8 6.8-1.9 1.7-4.2 2.8-6.6 3.7-13.1 5.3-27.3 7.3-45.9 9.5z" style="fill: rgb(253, 173, 160);"></path><path class="k" d="m534.7 708.1c10.5-16.2 27.6-29.4 46.9-30.2 4.9-0.2 10.8 1.1 12.3 5.8 1 2.9-0.3 6.2-2.5 8.4-2.2 2.2-5.2 3.4-8.1 4.4-16.4 5.4-35.4 4.9-48.6 11.6z" style="fill: rgb(253, 173, 160);"></path><path class="m" d="m82 754.5c116.7-8.8 235.6 11.6 342.7 58.7" style="stroke: rgb(255, 214, 208);"></path><path class="k" d="m56.2 770.4c-3.6 0.2-7.9-0.2-10-3.3-1.4-2.1-1.2-5-0.1-7.2 1-2.3 2.9-4.1 4.9-5.7 14.2-11.3 35.9-12 50.8-1.6-12.8 9.8-28.7 17-45.6 17.8z" style="fill: rgb(253, 173, 160);"></path><path class="k" d="m114.8 786.9c-2.1 2-4.5 3.8-7.3 4.6-2.8 0.8-6 0.5-8.2-1.4-2.1-1.9-2.9-4.9-2.5-7.7 0.3-2.8 1.6-5.3 3.1-7.7 6.8-11.1 18.2-19.2 30.9-22.2 1.2 6.6-4.6 23.6-16 34.4z" style="fill: rgb(253, 173, 160);"></path><path class="k" d="m147.2 801.2c-3.2 3-7.9 5.9-11.6 3.5-3.4-2.2-3.2-7.2-2-11.1 5.4-19.1 21.9-34.7 41.3-39.1-4.3 18-14.2 34-27.7 46.7z" style="fill: rgb(253, 173, 160);"></path><path class="k" d="m185.1 805c-1.9 2.4-3.8 4.8-6.5 6.3-2.6 1.5-6 2-8.6 0.5-3-1.7-4.2-5.6-3.7-9.1 0.5-3.4 2.4-6.5 4.3-9.3 10.6-15.9 24.3-30.6 42.1-37.5-8.6 20.9-17.1 35.7-27.6 49.1z" style="fill: rgb(253, 173, 160);"></path><path class="k" d="m226.2 799.3c-1 3.2-2.2 6.5-4.4 9-2.2 2.5-5.7 4.2-8.9 3.2-2.6-0.8-4.4-3.2-5.2-5.8-0.8-2.5-0.7-5.3-0.3-7.9 2.4-17 14.8-32.3 31-38-3 12.8-7.6 26.2-12.2 39.5z" style="fill: rgb(253, 173, 160);"></path><path class="k" d="m265.2 792.2c-1.6 8.3-5 16.4-10.9 22.6-1.6 1.7-3.7 3.3-6 2.9-2.6-0.4-4.1-3.2-4.9-5.8-2.5-8.7-0.7-18.3 3.1-26.6 3.8-8.3 9.5-15.6 15.2-22.7 4.9 12.8 5.1 21.3 3.5 29.6z" style="fill: rgb(253, 173, 160);"></path><path class="k" d="m294.7 809.7c-1.1 3.3-2.4 6.7-4.8 9.1-2.5 2.5-6.5 3.8-9.6 2.2-2.6-1.3-4-4.3-4.2-7.3-0.2-2.9 0.6-5.8 1.5-8.6 2.2-7 4.7-13.9 8.6-20.1 3.8-6.2 9.2-11.7 16-14.5-2.3 15.5-3.9 27.7-7.5 39.2z" style="fill: rgb(253, 173, 160);"></path><path class="k" d="m117 750.6c-12.7-3.9-23.6-13.3-29.3-25.2-0.8-1.5-1.5-3.2-1.2-4.8 0.4-2.9 3.2-4.8 6.1-5.3 5.3-1 10.7 1.7 14.3 5.8 3.6 4 5.6 9.1 7.2 14.2 1.7 5.2 3 10.4 2.9 15.3z" style="fill: rgb(253, 173, 160);"></path><path class="k" d="m154.3 753.8c-10.2-6-18.6-15-23.9-25.5-1.2-2.4-2.3-5-2.5-7.6-0.1-2.7 0.7-5.5 2.8-7.2 2.3-1.9 5.6-2.1 8.4-1 2.7 1 5 3.1 7 5.2 7.4 8.2 11.9 18.9 8.2 36.1z" style="fill: rgb(253, 173, 160);"></path><path class="k" d="m194.3 754.6c-14-8.3-22.7-24.7-21.7-40.9 0.1-2.2 0.6-4.7 2.6-5.7 1.5-0.7 3.3-0.2 4.6 0.8 1.4 1 2.2 2.4 3.1 3.9 6.1 10.7 10.4 22.4 11.4 41.9z" style="fill: rgb(253, 173, 160);"></path><path class="k" d="m229.8 757.4c-11.4-6.6-18.9-19.4-19.2-32.6-0.1-4.3 0.9-9.3 4.8-11.3 2.7-1.4 6.1-0.8 8.7 0.9 2.6 1.6 4.4 4.2 6 6.8 6.5 11.1 8.6 24.6-0.3 36.2z" style="fill: rgb(253, 173, 160);"></path><path class="k" d="m258.4 763.7c-5.7-3.1-9.4-9.1-11-15.4-1.6-6.3-1.4-12.8-1-19.3 0.3-3.8 0.6-7.7 2.5-11.1 1.9-3.3 5.8-5.8 9.5-4.9 3.9 1 6.1 5.2 7.3 9 4.3 13.5 3.1 28.6-7.3 41.7z" style="fill: rgb(253, 173, 160);"></path><path class="k" d="m290.3 768.9c-8.8-13-9.3-31.1-1.3-44.6 1.6-2.6 4-5.4 7.1-5 2.8 0.3 4.6 3 5.8 5.6 6.3 14.5 3.2 32.5-11.6 44z" style="fill: rgb(253, 173, 160);"></path><path class="n" d="m576.9 685.6c0 0-26.5 84.4-48.5 103.8-16.2 14.4-137.6 23.1-137.6 23.1l-10.1-51.1c0 0 99.2-13.5 107.2-24.7 8.1-11.3 20.6-92.2 40.5-133.8 8.8-18.3 36.4-30.2 36.4-30.2l10.3 35z" style="fill: rgb(247, 116, 111);"></path><path class="o" d="m640.9 397.7c3.4-14.3 18.9-24 33.6-22.8 14.7 1.2 27.6 12 33.5 25.5 5.9 13.5 5.3 29.3 0.6 43.2-3.3 9.5-8.4 19.6-4.7 28.9 2.7 6.9 9.6 11.2 16.4 14.2 6.8 3 14.1 5.4 19.6 10.3 5.6 5 8.6 13.8 4.5 20-5.9 9-22.4 7.3-26.1 17.4-1.9 5.1 0.8 10.8 0.5 16.3-0.4 6.8-5.6 12.7-11.8 15.7-6.2 3-13.3 3.6-20.2 3.8-12.1 0.3-24.8-0.7-35.3-6.8-10.5-6-18.2-18.3-15.7-30.1 2.1-9.7 10.5-18.7 7.6-28.2-2.1-6.9-9.3-10.6-14.5-15.6-10.9-10.5-12.6-28-8.2-42.5 4.4-14.6 14.7-26.7 20.2-49.3z" style="fill: rgb(107, 46, 64);"></path><path class="p" d="m655.8 547.3c-17.3 26.7-47.9 56.8-58.8 55.3-9-1.2-18.2-13.8-18.2-36.2 1.2-0.5 2.5-1.2 3.7-2.1 2.7-2.1 5-5.1 6.4-8.7 0.4-0.9 0.7-1.9 0.9-2.8 1.4-6.3-0.3-13.5-4.2-17.7q-0.2-0.3-0.5-0.7c14.6-13.2 29.2-22.6 43.8-32 0.5 8.7 2.4 16.8 5.6 23.8q1.1 2.4 2.4 4.6c4.7 7.8 11.4 13.7 18.9 16.5z" style="fill: rgb(250, 200, 191);"></path><path class="q" d="m634.4 526.1c-10.7 14.9-29.3 38.5-51.9 38.1 2.6-2 5-5.1 6.4-8.6 0.4-0.9 0.7-1.9 0.9-2.8 1.4-6.3-0.4-13.5-4.2-17.7q-0.3-0.4-0.6-0.7c14.6-13.3 29.2-22.7 43.8-32.1 0.6 8.8 2.4 16.9 5.6 23.8z" style="fill: rgb(237, 161, 159);"></path><path class="r" d="m710.1 582.4c7.5 25.7-13.3 116.7-11.5 157.5 1.9 40.7 11.3 79.2 11.3 79.2l-178.5 0.4c0 0 13.1-43.3 13.1-61.3 0-18.1-17.5-39.7-19.3-72.9-1-18.4 10.6-88.9 19.9-100.4 8.1-10.1 36.2-23.3 36.2-23.3 0 0-2.8 36.3 14 35.5 29.5-1.4 54.2-54 54.2-54 0 0 55.3 21.3 60.6 39.3z" style="fill: rgb(255, 145, 133);"></path><path class="s" d="m594.7 597.2c0 0 38.7-14.9 53.3-56.2 0 0 21.1 6.1 22.5 9.6 2.3 5.8-7.7 47.8-20.2 54.1-10.8 5.4-55.6-7.5-55.6-7.5z" style="fill: rgb(242, 92, 97);"></path><path class="s" d="m549.5 609.7c-4.4-3.1 11.1-34.9 20-43 6.1-5.5 17.4-9.4 17.4-9.4-5 21.6 7.8 39.8 7.8 39.8 0 0-42.2 14.8-45.2 12.6z" style="fill: rgb(242, 92, 97);"></path><path class="t" d="m592.2 610c3 0 5.4 2.4 5.4 5.3 0 3-2.4 5.3-5.4 5.3-2.9 0-5.3-2.3-5.3-5.3 0-2.9 2.4-5.3 5.3-5.3z" style="fill: rgb(191, 71, 83);"></path><path class="t" d="m588.5 642.8c2.9 0 5.3 2.4 5.3 5.4 0 2.9-2.4 5.3-5.3 5.3-3 0-5.4-2.4-5.4-5.3 0-3 2.4-5.4 5.4-5.4z" style="fill: rgb(191, 71, 83);"></path><path class="u" d="m525 449.4c12.6-2.2 25.3 10.6 28.4 28.5 3.2 18-4.4 34.3-17 36.5-12.5 2.2-25.2-10.6-28.4-28.5-3.1-18 4.5-34.3 17-36.5z" style="fill: rgb(3, 135, 217);"></path><path class="p" d="m584.7 544.4c-36.2 7.1-60.4-31.7-60.4-92.2 0-44.9 40.4-76.8 77.7-72 37.4 4.8 63.1 44.8 57.5 89.4-5.6 44.6-40.1 68-74.8 74.8z" style="fill: rgb(250, 200, 191);"></path><path class="q" d="m652.5 463.9c-12.1-2-23.1-9.9-28.9-20.7 1.3 6.9-1.6 14.5-7.3 18.8-2.1 1.6-5 2.8-7.5 1.8-1.9-0.8-3.1-2.7-4-4.6-3.2-6.6-4.1-14.2-2.5-21.4-5.4 12.4-17.1 21.8-30.3 24.4-3.6 0.7-7.8 0.7-10.3-2-2-2.2-2.2-5.7-1.2-8.5 1-2.9 3.1-5.2 5-7.5-12.3 8.7-28 12.5-42.9 10.4 5-20.5 17.4-39.4 35.4-50.5 18-11 41.6-13.2 60.6-4 19 9.2 32.1 30.3 30 51.3" style="fill: rgb(237, 161, 159);"></path><path class="v" d="m654.4 490.3c-1.3-7.4-3.6-15.9-6.9-24.8-11.3-8.5-19.9-20.6-26-33.5 0 0.5 0 0.9 0 1.4-0.3 10.3-7.6 29.9-10.8 27.9-5.2-3.3-4.4-39-6.6-58.6 1.5 12-0.1 24.7-5.9 35.3-5.8 10.6-16 19-27.9 21.3-1.5 0.3-3.4 0.4-4.5-0.7-1.3-1.5-0.6-3.8 0.1-5.6 6-14 11.9-28 17.8-42-4.6 10.8-10 21.4-19.1 28.4-10.2 7.9-23.8 11.4-39 11.2-1.3 9.1-1.1 17.3-0.1 24.1-3.9-7.2-6.4-14.9-7.6-22.7-3.1-20 2.4-41.2 14.6-57.2 16.9-22.2 47.1-33.4 74.4-27.7 5.9 0.3 11.6 1.3 17 3 21.9 6.5 39.7 23 47.3 43.7 9.5 25.8 2.7 56.9-16.8 76.5z" style="fill: rgb(144, 75, 87);"></path><path class="w" d="m623.9 370c-23.4-1.5-47.1 3.3-66.8 16-22.3 14.4-38.1 39.6-39.2 66-3.1-20.1 2.4-41.2 14.6-57.2 16.9-22.2 47.1-33.5 74.4-27.7 5.9 0.3 11.6 1.3 17 2.9z" style="fill: rgb(189, 125, 129);"></path><path class="j" d="m645.4 461.4c0 0 4.2-48.1-23.5-70-33.5-26.6-78.5-8-78.5-8 0 0-2.8-6.4 25-15 13.6-4.3 46.5-8.4 69.2 12.6 27.1 25.1 25.4 69.1 25.4 69.1z" style="fill: rgb(10, 68, 148);"></path><path class="u" d="m633.2 477c2.3-18.1 14.5-31.4 27.1-29.7 12.6 1.6 21 17.6 18.6 35.7-2.4 18-14.5 31.3-27.2 29.7-12.6-1.7-20.9-17.7-18.5-35.7z" style="fill: rgb(3, 135, 217);"></path><path class="x" d="m649.5 479.1c2.1-16.1 10.5-28.3 18.7-27.2 8.2 1.1 13.1 15 11 31.1-2.1 16.1-10.5 28.3-18.7 27.2-8.2-1-13.1-15-11-31.1z" style="fill: rgb(117, 192, 224);"></path><path class="y" d="m606.3 467.7c-7.5-7.6-18.1-8.2-25-5.2" style="stroke: rgb(144, 75, 87);"></path><path class="y" d="m552.8 463.5c-7.8-5.9-18-3.8-22.3 1.4" style="stroke: rgb(144, 75, 87);"></path><path class="z" d="m559.2 484c-0.2 5.9 0.4 11.8 1.9 17.6" style="stroke: rgb(179, 82, 103);"></path><path class="A" d="m590.3 478.7c2 0 3.5 2.4 3.5 5.3 0 2.9-1.5 5.3-3.5 5.3-1.9 0-3.4-2.4-3.4-5.3 0-2.9 1.5-5.3 3.4-5.3z" style="fill: rgb(54, 56, 87);"></path><path class="A" d="m541.6 478.7c2 0 3.5 2.4 3.5 5.3 0 2.9-1.5 5.3-3.5 5.3-1.9 0-3.4-2.4-3.4-5.3 0-2.9 1.5-5.3 3.4-5.3z" style="fill: rgb(54, 56, 87);"></path><path class="B" d="m587.2 524.2c-6.5 1.9-11-0.1-14-3.1-4.1-4-5.5-9.6-5.5-9.6l0.8-0.3 25.8-7.6c0 0 0.7 1.4 1.2 3.5q0.4 1.2 0.6 2.6c0.7 5.1-0.2 11.8-8.9 14.5z" style="fill: rgb(179, 82, 103);"></path><path class="C" d="m595.5 507.1c-6.7 2.6-21.3 6.4-23.3 6.4-1.3 0-2.7-1.2-3.6-2.3l25.8-7.6c0 0 0.6 1.4 1.1 3.5z" style="fill: rgb(255, 237, 239);"></path><path class="D" d="m587.2 524.2c-6.5 1.9-11-0.1-14-3.1 7.6-8.7 17-11 22.9-11.4 0.7 5.1-0.2 11.8-8.9 14.5z" style="fill: rgb(230, 145, 157);"></path><path class="E" d="m565.2 549.4c0 0-12.3 0.1-23.6-9.6-10.7-9.4-12-21-11.6-25.9" style="stroke: rgb(54, 56, 87);"></path><path class="A" d="m569.4 542.9c5.9 0 10.7 2.9 10.7 6.5 0 3.6-4.8 6.5-10.7 6.5-5.9 0-10.7-2.9-10.7-6.5 0-3.6 4.8-6.5 10.7-6.5z" style="fill: rgb(54, 56, 87);"></path><path class="F" d="m912.7 808.1v12.2l-152.3 32.8-689.3-1.4v-12.7z" style="fill: rgb(27, 46, 52);"></path><path class="a" d="m320 808.3l592.7-0.2-153.4 31.1-688.2-0.2z" style="fill: rgb(247, 244, 242);"></path><g style="opacity:.9"><path class="G" d="m384.6 811.6c-12.9 1.6-27.3 2.6-42.6 3.1-14.7 0.6-30.1 0.8-45.7 0.8 3.8-12.8 12.1-24.4 23.5-31.2 3.5-2.1 7.4-3.8 11.4-4.9 8.8-2.5 18.4-2.4 27.1 0.8 12.5 4.6 23.9 18.3 26.3 31.4z" style="fill: rgb(18, 37, 43);"></path><path class="H" d="m342 814.7c-14.7 0.6-30.1 0.8-45.7 0.8 3.8-12.8 12.1-24.4 23.5-31.2 3.5-2.1 7.4-3.8 11.4-4.9 5.1 3.7 8.5 9.5 10.1 15.7 1.7 6.4 1.5 13.1 0.7 19.6z" style="fill: rgb(89, 115, 117);"></path><path class="p" d="m391.8 800c-7.6 3.6-14 4.6-23.5 3.8-3.4 4.4-20.1 18.4-24.4 14.7-3.3-2.9 8.8-14.7 11.2-19.1 1.8-3.3 3.2-6.9 3.3-10.8-4.1-4.9-12.2-9.6-17.5-8.3-8.2 2.1-18.3 14.1-28.5 22.8-1.4 1.2-2.9 2.4-4.6 2.9-1.7 0.5-3.7 0.2-4.8-1.4-2-2.7-0.4-6.8 1.4-9.7 9.4-15.6 21.6-28.9 35.4-38.9 17.3 2.1 29.1 6.4 44.8 13.4 4.2 9.2 7.4 21.4 7.2 30.6z" style="fill: rgb(250, 200, 191);"></path></g><path class="F" d="m695.3 801.7v6l-60.4 11.9h-273.4v-9.6z" style="fill: rgb(27, 46, 52);"></path><path class="I" d="m460.2 801.8l235.1-0.1-60.9 8.4-272.9-0.1z" style="fill: rgb(50, 75, 79);"></path><path class="t" d="m697.7 776c-1.5 19.1-17.7 22.2-17.7 22.2-18.5-30.4 0.3-49 0.3-49 0 0 18.3 14.6 17.4 26.8z" style="fill: rgb(191, 71, 83);"></path><path class="p" d="m691.4 779.9c-0.6 1.1-8.5 2.2-14.1 2.7-1.5 0.1-7 0-8 0 0.9 6.4-2.5 10.8-6.1 11.7-4.4 1.1-8.9-1.5-11.9-4.2-4.3 3.2-8.4 4.1-12.3 2.1-4-2.1-7.5-8.1-8-13.9-0.8 3.9-1.6 7.3-1 9.3 0.7 2.7 10.3 15.8 3.4 18.1-3.2 1-13.8-10.4-15-15.4-1.5-6.2-1.2-13.6 2.1-23-6.1 7.3-8.2 10.9-8.9 13.9-1.6 7.9-0.3 21.9-5.9 21.4-6.6 0-7.8-19.9-5.1-28.5 1.9-6.1 14.2-25.5 20.9-27.2 6.1-1.5 39.3-0.1 45.6 0.8 3.1 0.5 6.2 0.8 9 1 7.9 0.7 14.1 0.7 14.4 1 3.9 4.1 2.6 26.9 0.9 30.2z" style="fill: rgb(250, 200, 191);"></path><path class="q" d="m691.4 779.9c-0.6 1.1-8.5 2.2-14.1 2.7 1.3-3.3 2.3-6.7 2.7-10.2 1-8.1-0.3-16.4-3.9-23.6 7.9 0.6 14.1 0.6 14.4 0.9 3.9 4.1 2.6 26.9 0.9 30.2z" style="fill: rgb(237, 161, 159);"></path><path class="J" d="m642.9 766.2c0.6 8.9 2.6 14.8 7.5 22.3" style="stroke: rgb(179, 82, 103);"></path><path class="J" d="m668.6 782.3c-1.3-0.3-3.2-1.6-4.2-2.5" style="stroke: rgb(179, 82, 103);"></path><path class="J" d="m664.3 776c0.3 2.6-0.1 5.3-1.3 7.7" style="stroke: rgb(179, 82, 103);"></path><path class="r" d="m774.4 789.2c-10.2 13.4-94.9 8.5-94.9 8.5 10.3-12.2 13.3-31.5 0.2-49.7 0 0 32.7 2.8 33.1-2.6 0.4-5.4-29.2-56.9-33.1-83.6-1.9-12.8-7.1-47.1-11.2-74.1 0.3-0.4 0.6-0.7 0.8-1 6.5-7.6 13.5-15.1 22-20.5q0.7-0.4 1.4-0.8c14.9 8.2 30.7 19.3 36 31.2 7.6 17.5 55.9 179.3 45.7 192.6z" style="fill: rgb(255, 145, 133);"></path><path class="K" d="m693.2 585.4c-13.3 41.2-11.4 87.1 5.3 127.1" style="stroke: rgb(235, 110, 106);"></path><path class="K" d="m664.1 655.6c5.3 19 15.6 35.4 30.8 48" style="stroke: rgb(235, 110, 106);"></path><path class="K" d="m681.6 747.7c4.8 1.1 9.8 1.6 14.7 1.5" style="stroke: rgb(235, 110, 106);"></path><path class="K" d="m704.6 798.7c-9.1 0-14.9-0.3-23.8-0.8" style="stroke: rgb(235, 110, 106);"></path><path class="F" d="m136.5 778l-10.9-249.1h341.5l10.9 249.1z" style="fill: rgb(27, 46, 52);"></path><path class="I" d="m466.3 778l-10.9-249.1h11.7l10.9 249.1z" style="fill: rgb(50, 75, 79);"></path><path class="G" d="m234.9 827.4l31.9-133.8h61.9l-31.9 133.8z" style="fill: rgb(18, 37, 43);"></path><path class="I" d="m292.8 827.4l31.9-133.8h4l-31.9 133.8z" style="fill: rgb(50, 75, 79);"></path><path class="G" d="m205.5 813.4h126.3v14h-126.3z" style="fill: rgb(18, 37, 43);"></path><path class="I" d="m323.6 813.4h8.2v14h-8.2z" style="fill: rgb(50, 75, 79);"></path></svg>